<?xml version="1.0" encoding="utf-8"?>
<!-- Generator: Adobe Illustrator 23.1.0, SVG Export Plug-In . SVG Version: 6.00 Build 0)  -->
<svg version="1.1" id="Layer_2" xmlns="http://www.w3.org/2000/svg" xmlns:xlink="http://www.w3.org/1999/xlink" x="0px" y="0px"
	 viewBox="0 0 1176.7 217.1" style="enable-background:new 0 0 1176.7 217.1;" xml:space="preserve">
<style type="text/css">
	.st0{fill:#EEEEEE;}
	.st1{fill:#27400D;}
</style>
<g id="RD">
	<path class="st0" d="M1089.7,183.3H808.4V33.8h281.3c18.2,0,33,14.8,33,33v83.4C1122.7,168.5,1108,183.3,1089.7,183.3z"/>
	<path id="D" class="st1" d="M1026.9,54c9.8,5.3,17.4,12.6,22.7,22.1c5.3,9.4,7.9,20.1,7.9,32.1c0,11.9-2.6,22.6-7.9,32.1
		c-5.3,9.5-12.9,17-22.7,22.5c-9.8,5.5-21.3,8.2-34.3,8.2h-52.1v-125h52.1C1005.6,46.1,1017.1,48.7,1026.9,54z M1010,128.8
		c5.2-4.8,7.8-11.7,7.8-20.6c0-8.9-2.6-15.8-7.8-20.6c-5.2-4.8-12.2-7.2-21-7.2h-9.4v55.8h9.4C997.9,136.1,1004.9,133.7,1010,128.8z
		"/>
	<path id="R" class="st1" d="M885.1,171l-23.5-44.8h-0.2V171h-39.2v-125h58.2c10.1,0,18.8,1.8,25.9,5.4c7.2,3.6,12.6,8.5,16.1,14.6
		c3.6,6.2,5.4,13.1,5.4,20.9c0,8.4-2.3,15.8-7,22.2c-4.6,6.5-11.3,11.1-20,13.9l27.2,47.8H885.1z M861.4,100.1H877
		c3.8,0,6.6-0.9,8.5-2.6c1.9-1.7,2.8-4.4,2.8-8c0-3.3-1-5.9-2.9-7.8c-1.9-1.9-4.7-2.8-8.4-2.8h-15.5V100.1z"/>
</g>
<g>
	<path class="st0" d="M32.2,79c4.8-8.7,11.5-15.5,20.1-20.3c8.6-4.9,18.3-7.3,29.2-7.3c13.3,0,24.7,3.5,34.2,10.6
		c9.5,7,15.8,16.6,19,28.8h-30.1c-2.2-4.7-5.4-8.3-9.5-10.7c-4.1-2.5-8.8-3.7-14-3.7c-8.4,0-15.3,2.9-20.5,8.8
		c-5.2,5.9-7.8,13.7-7.8,23.5c0,9.8,2.6,17.7,7.8,23.5c5.2,5.9,12.1,8.8,20.5,8.8c5.2,0,9.9-1.2,14-3.7c4.1-2.5,7.3-6,9.5-10.7h30.1
		c-3.2,12.2-9.5,21.7-19,28.7c-9.5,7-20.9,10.5-34.2,10.5c-10.9,0-20.6-2.4-29.2-7.3c-8.6-4.9-15.3-11.6-20.1-20.2
		S25,119.7,25,108.6C25,97.5,27.4,87.6,32.2,79z"/>
	<path class="st0" d="M221.5,145.1h-41.9l-6.7,19.8h-28.6l40.6-112.3h31.7L257.2,165h-29L221.5,145.1z M214.4,124l-13.9-41.1
		L186.8,124H214.4z"/>
	<path class="st0" d="M396.7,52.6V165h-27.4V97.6L344.2,165h-22.1l-25.3-67.5V165h-27.4V52.6h32.3l31.5,77.8l31.2-77.8H396.7z"/>
	<path class="st0" d="M497.5,106.6c-3,5.4-7.6,9.7-13.8,13c-6.2,3.3-13.9,5-23,5h-17V165h-27.4V52.6h44.3c9,0,16.5,1.5,22.7,4.6
		c6.2,3.1,10.8,7.4,13.9,12.8c3.1,5.4,4.6,11.7,4.6,18.7C502,95.3,500.5,101.2,497.5,106.6z M470.3,99.2c2.6-2.5,3.8-5.9,3.8-10.4
		s-1.3-7.9-3.8-10.4c-2.6-2.5-6.5-3.7-11.7-3.7h-14.9v28.2h14.9C463.8,102.9,467.7,101.6,470.3,99.2z"/>
	<path class="st0" d="M543.5,52.6V165h-27.4V52.6H543.5z"/>
	<path class="st0" d="M663.9,165h-27.4l-45.8-69.3V165h-27.4V52.6h27.4l45.8,69.6V52.6h27.4V165z"/>
	<path class="st0" d="M758.3,88.2c-2-3.7-4.9-6.6-8.7-8.6c-3.8-2-8.2-3-13.4-3c-8.9,0-15.9,2.9-21.3,8.7c-5.3,5.8-8,13.6-8,23.3
		c0,10.3,2.8,18.4,8.4,24.2c5.6,5.8,13.3,8.7,23.1,8.7c6.7,0,12.4-1.7,17-5.1c4.6-3.4,8-8.3,10.2-14.7h-34.7v-20.2h59.5V127
		c-2,6.8-5.5,13.2-10.3,19c-4.9,5.9-11,10.6-18.5,14.2c-7.5,3.6-15.9,5.4-25.3,5.4c-11.1,0-21-2.4-29.7-7.3
		c-8.7-4.9-15.5-11.6-20.3-20.2c-4.9-8.6-7.3-18.5-7.3-29.6c0-11.1,2.4-21,7.3-29.7c4.9-8.7,11.6-15.5,20.2-20.3
		c8.6-4.9,18.5-7.3,29.6-7.3c13.4,0,24.8,3.3,34,9.8c9.2,6.5,15.3,15.5,18.3,27H758.3z"/>
</g>
</svg>
